<?xml version="1.0" encoding="utf-8"?>
<svg version="1.1" xmlns="http://www.w3.org/2000/svg" xmlns:xlink="http://www.w3.org/1999/xlink" x="0px" y="0px" width="544.2px"
     height="544.2px" viewBox="0 0 544.2 544.2" style="overflow:visible;enable-background:new 0 0 544.2 544.2;"
     xml:space="preserve">
<g>
    <path style="fill:#0A2B33;" d="M272.1,0C2.1,0,0,121.8,0,272.1s2.1,272.1,272.1,272.1s272.1-121.8,272.1-272.1S542.1,0,272.1,0z"/>
    <g>
        <path style="fill:#FFFFFF;" d="M223.3,378.3c-31.6,0-57.4-25.7-57.4-57.4V160.6c0-1,0-2,0.1-3c-16.2,7.1-27.5,23.2-27.5,42V360
            c0,25.3,20.5,45.8,45.8,45.8h160.3c18.8,0,34.9-11.3,42-27.5c-1,0-2,0.1-3,0.1H223.3z"/>
        <path style="fill:#FFFFFF;" d="M383.6,126.4H223.3c-16.6,0-30.4,11.8-33.6,27.5c-0.4,2.2-0.7,4.4-0.7,6.8V321
            c0,18.9,15.4,34.2,34.2,34.2h160.3c2.3,0,4.6-0.2,6.8-0.7c15.6-3.1,27.5-17,27.5-33.6V160.6C417.8,141.8,402.5,126.4,383.6,126.4z
             M376.8,247.5l-28.6,28.6l0,0c-3.7,3.7-9.8,3.7-13.5,0c-3.7-3.7-3.7-9.8,0-13.5l12.3-12.3h-87.3l12.3,12.3c3.7,3.7,3.7,9.8,0,13.5
            c-3.7,3.7-9.8,3.7-13.5,0L230,247.5c-3.7-3.7-3.7-9.8,0-13.5l28.6-28.6c3.7-3.7,9.8-3.7,13.5,0c3.7,3.7,3.7,9.8,0,13.5l-12.3,12.3
            h87.3L334.8,219c-3.7-3.7-3.7-9.8,0-13.5c3.7-3.7,9.8-3.7,13.5,0l28.6,28.6C380.5,237.8,380.5,243.8,376.8,247.5z"/>
    </g>
</g>
</svg>
